<svg id="Layer_1" data-name="Layer 1" xmlns="http://www.w3.org/2000/svg" xmlns:xlink="http://www.w3.org/1999/xlink" viewBox="0 0 3000 2000"><defs><style>.cls-1{fill:none;}.cls-2{clip-path:url(#clip-path);}.cls-3{fill:url(#linear-gradient);}.cls-4,.cls-54,.cls-71{fill:#fff;}.cls-5{fill:#f2f2f2;}.cls-6{fill:#e6e6e6;}.cls-7{fill:#bfedef;}.cls-8{opacity:0.8;}.cls-9{fill:#6fddcd;}.cls-10{fill:#5ed0bc;}.cls-11{fill:url(#linear-gradient-2);}.cls-12{fill:url(#linear-gradient-3);}.cls-13{fill:#61c1b3;}.cls-14{fill:#56b7a6;}.cls-15{fill:#aae5a5;}.cls-16{fill:#bdedb7;}.cls-17{fill:#a1dd9b;}.cls-18{fill:#91d18b;}.cls-19{fill:#9cd895;}.cls-20{fill:#81c47a;}.cls-21{fill:#67aa5e;}.cls-22{fill:url(#linear-gradient-4);}.cls-23{fill:#c0f9f7;}.cls-24{fill:#95af4e;}.cls-25{fill:#90a542;}.cls-26{fill:#5fa553;}.cls-27{fill:#559947;}.cls-28{fill:#4e933f;}.cls-29{fill:#cae29c;}.cls-30,.cls-70{fill:#8f9e33;}.cls-30,.cls-68,.cls-71{opacity:0.3;}.cls-31{fill:#d7eaad;}.cls-32{fill:#8c6239;}.cls-33{fill:#428731;}.cls-34{fill:#468c35;}.cls-35{fill:#397728;}.cls-36{fill:#4d7f44;}.cls-37{fill:#39682f;}.cls-38{fill:#396d2e;}.cls-39{fill:#19442b;}.cls-40{fill:#684420;}.cls-41{fill:#1d4f32;}.cls-42{fill:#754c24;}.cls-43{fill:#d67047;}.cls-44{fill:#af472b;}.cls-45{fill:#c6613e;}.cls-46{fill:#999;}.cls-47{fill:#e8cdac;}.cls-48{fill:#ddbb97;}.cls-49{fill:#d3a97a;}.cls-50{fill:#365568;}.cls-51{fill:#1d3744;}.cls-52{fill:#c5fcf9;}.cls-53,.cls-54{opacity:0.5;}.cls-55{fill:#b75337;}.cls-56{fill:#91321c;}.cls-57{fill:#f4dec1;}.cls-58{fill:#ead3b9;}.cls-59{fill:#e0c2a2;}.cls-60{fill:#e0be94;}.cls-61{fill:#ad4b31;}.cls-62{fill:#b3b3b3;}.cls-63{fill:#ea8a68;}.cls-64{fill:#c1762b;}.cls-65{fill:#265e1b;}.cls-66{fill:#c69c6d;}.cls-67{fill:#a7bc58;}.cls-68,.cls-69{fill:#e0f2c2;}.cls-69{opacity:0.2;}</style><clipPath id="clip-path"><rect class="cls-1" width="3000" height="2000"/></clipPath><linearGradient id="linear-gradient" x1="1500" y1="-593.78" x2="1500" y2="1603.91" gradientUnits="userSpaceOnUse"><stop offset="0.14" stop-color="#aedff5"/><stop offset="0.23" stop-color="#c0e6f7"/><stop offset="0.4" stop-color="#dcf1fb"/><stop offset="0.57" stop-color="#eff9fd"/><stop offset="0.74" stop-color="#fbfdff"/><stop offset="0.92" stop-color="#fff"/></linearGradient><linearGradient id="linear-gradient-2" x1="2127.4" y1="514.03" x2="3244" y2="514.03" gradientUnits="userSpaceOnUse"><stop offset="0" stop-color="#24829c"/><stop offset="0.39" stop-color="#54a4b8"/><stop offset="1" stop-color="#9cd8e2"/></linearGradient><linearGradient id="linear-gradient-3" x1="2750.92" y1="514.03" x2="3244" y2="514.03" xlink:href="#linear-gradient-2"/><linearGradient id="linear-gradient-4" x1="991.53" y1="1325.77" x2="973.75" y2="1873.32" gradientUnits="userSpaceOnUse"><stop offset="0.01" stop-color="aqua"/><stop offset="0.57" stop-color="#6a6a6a"/></linearGradient></defs><g class="cls-2"><rect class="cls-3" width="3000" height="2000"/><path class="cls-4" d="M2718,259a110,110,0,0,0-110,110c0,1.5,0,3,.1,4.46a176.77,176.77,0,0,0-205,110.37,167,167,0,1,0-321.73,89.94,110,110,0,0,0-18.9,6.19A110,110,0,0,0,1859.89,652c-1,0-1.92,0-2.89,0a109.8,109.8,0,0,0-37.7,6.63A110,110,0,0,0,1619.58,751,79,79,0,1,0,1720,827a79.93,79.93,0,0,0-.78-11h.78a109.8,109.8,0,0,0,37.7-6.63A110,110,0,0,0,1966.11,748c1,0,1.92,0,2.89,0a109.73,109.73,0,0,0,43.55-9,110,110,0,0,0,202.81-46.16,167.22,167.22,0,0,0,182.09-103.72,176.53,176.53,0,1,0,334.23-111A110,110,0,0,0,2718,259Z"/><circle class="cls-4" cx="2997" cy="436" r="166"/><path class="cls-4" d="M1360,762a78.82,78.82,0,0,0-61.11,28.94A79,79,0,0,0,1208,691.45,110,110,0,0,0,992.85,661.6,110.23,110.23,0,0,0,910.27,676a110,110,0,0,0-159.45-34.32,78.84,78.84,0,0,0-29.74-13A110,110,0,0,0,531.35,525.75,78.79,78.79,0,0,0,473,500h-.41a79,79,0,0,0-115.13-45.39A126,126,0,0,0,156,323.65,126.16,126.16,0,0,0,43.18,299.33,125.38,125.38,0,0,0,66,227,126,126,0,0,0-60,101,126,126,0,0,0-186,227,126,126,0,0,0-60,353a125.91,125.91,0,0,0,32.82-4.33A126,126,0,0,0,76,547a125.49,125.49,0,0,0,80-28.65,126,126,0,0,0,162.29-1.94c-.18,2.18-.29,4.37-.29,6.59a79,79,0,0,0,79,79h.41a79,79,0,0,0,119.82,42.47A110,110,0,0,0,616,706c3.38,0,6.71-.16,10-.46,0,.16,0,.31,0,.46a79,79,0,0,0,79,79,80.11,80.11,0,0,0,13.5-1.17A110,110,0,0,0,873.73,824a110,110,0,0,0,200.42-22.62,110.34,110.34,0,0,0,73.34-9.14,79,79,0,0,0,136.62,26.8A79,79,0,1,0,1360,762Z"/><path class="cls-5" d="M660.7,747.78a168.84,168.84,0,0,0-22.06-16.1s-17.86-25.27-22.8-32.66c-17.69-26.52-51.74-75.49-51.74-75.49L514.54,574l-36.19-13.35L441.3,530l-18.1-52.57v0c-.44-.49-14.47-16.59-26.74-31.57-9.52-11.64-23.94-38.12-23.94-38.12l-.36-.65-17-34.34h0l-8.62,13.36L309.88,421s-20.86,28.71-34,41.72c-26.37,26.15-63,88.84-63,88.84s-62.36,57.12-81.08,93.08c-9,17.23-24.71,52.72-24.71,52.72s-22,30-39.14,50.41Z"/><path class="cls-6" d="M358.14,616.63V747.78H660.7a168.84,168.84,0,0,0-22.06-16.1s-17.86-25.27-22.8-32.66c-17.69-26.52-51.74-75.49-51.74-75.49L514.54,574l-36.19-13.35L441.3,530l-18.1-52.57v0c-.44-.49-14.47-16.59-26.74-31.57-9.52-11.64-23.94-38.12-23.94-38.12l-.36-.65-17-34.34h0l2.15,14.65,5.61,21.5-14.22,25.9,15.08-17.67.43,13.36,1.29,9.91-2.58,4.31-4.74,10.77,2.58,14.22-3,13.36-12.92,18.1-29.73,41.36,49.55-55.15,3.52,14.47-9.55,21.29,11.2,28.44-9.53,17.32,3.07,12.41-103,145.21Z"/><polygon class="cls-5" points="2663.31 748 2119.29 748 2132.21 734.77 2269.7 520.27 2351.76 423.81 2356.23 443.85 2359.38 447.34 2365.44 454.04 2385.59 494.36 2453.97 541.14 2512.28 625.37 2563.39 668.55 2599.62 718.6 2663.31 748"/><path class="cls-6" d="M2438.24,748c18.36-9.69,38.87-19.75,38.87-19.75l-9.35-61.18L2431,637.55l-42.47,34.55,18-34.55V623.16l-14.4-28.08-1.43-20.15-19.44-20.88-35,42.48,32.16-66.15-8.64-15.91,2.16-16.56,7.2-21.59-11.52-13.69,1.76-15.29,6.06,6.7,20.15,40.32L2454,541.14l58.31,84.23,51.11,43.18,36.23,50.05,63.69,29.4Z"/><path class="cls-7" d="M3129.44,744c-49.55-19-415.44-88-453.74-98.59S2431,587,2414.54,595.19,2358,624,2353.37,627.67,2236,631.22,2236,631.22L2177,681s-86-18-96-25-43-35-43-35l-37.42,31.56-147,28.44L1779,709l-32.43-13.78c-32.42-13.78-68.74,78.22-68.74,78.22L1636,798,1419,926h-46l-171-25-68.09.44-130.69-88.85h-32l-108.44-36L818,752s-24-57-22.31-71-64.45,0-64.45,0h-80C637.44,681,598,638,598,638l-53.44-16.8-74.67-57.34S385,574,359.67,563.86,322,590,313.73,584.51,192,564,155.4,563.86c0,0-69.4,53.14-80.4,57.14-8.61,3.13-198.74-31.14-277.11-47.35V1241c282.85,46,735.63,119.46,796.44,129C683.67,1384.12,2767,1243,2781,1225.18c10.32-13.14,374.73-115.23,565.33-167.93V799.5C3290,781.59,3168.57,759,3129.44,744Z"/><g class="cls-8"><polygon class="cls-9" points="795.69 812.59 -341 812.59 -284.9 743.07 -260.5 658.89 -238.86 616.84 -184.88 600.37 -148.29 563.78 -85.18 483.29 -50.42 422.36 -23.9 368.03 73.98 192.41 95.93 234.49 95.93 253.71 132.52 316.81 132.52 365.91 176.13 422.36 255.1 550.09 368.82 616.84 551.77 660.75 620.07 743.07 795.69 812.59"/><polygon class="cls-10" points="342.13 812.59 352.63 774.24 300.03 721.64 273.37 695.52 280.31 670.15 267.16 639.47 214.56 677.82 248.53 638.37 241.22 615.33 217.85 589.06 186.08 589.06 155.4 563.86 133.48 511.27 122.52 466.34 100.97 432.37 -2.39 540.85 100.97 418.07 73.98 400.24 67.74 358.96 73.98 321.7 73.98 273.13 23.91 335.95 73.98 242.45 73.98 192.41 95.93 234.49 95.93 253.71 132.52 316.81 132.52 365.91 176.13 422.36 255.1 550.09 368.82 616.84 551.77 660.75 620.07 743.07 795.69 812.59 342.13 812.59"/></g><path class="cls-11" d="M3218,723.77,3113.41,584.6l-76.18-65-46.73-66-81.26-76.18-67-70.09-30.47-59.94L2683.73,354l-36.57,68.06-47.4,65.35-78.56,29.12-32.51,42.67-74.15,43.68-87.21,42.46v38.57l-46.88,29.69L2214,737.76V770c187.37,1.64,632.63,5.62,869.65,8.33,89.72,1,149.6,1.86,154.36,2.32C3259,782.68,3218,723.77,3218,723.77Z"/><path class="cls-12" d="M3238,780.65c-4.76-.46-64.64-1.3-154.36-2.32l-9.13-9-12.65-40.39L3010,696.39l-45.71,32.51,30.48-36.57,14.79-20.16-41.2-54-64-27.42-17.6-14.4L2870.79,528V481l-16.59-55.57L2803.08,481,2847.42,412,2823,383.52l-20-36.57V309.48L2750.92,347l52.16-59.14,8.64-40.46,30.47,59.94,67,70.09,81.26,76.18,46.73,66,76.18,65L3218,723.77S3259,782.68,3238,780.65Z"/><path class="cls-13" d="M2452.11,830.67,2249.44,936l-40.91,17.09c-129.78,54.21-524.12,219-530.68,222.13C1670,1179,1379,1165,1368,1165s-448,64-459,60-381-75-395-75-316-71-316-71L9,936V809l360-28H485.89s153-10,163.55,0,103.12,28,103.12,28l110.22-32.44S937,731,948,724s57-43,57-43h71.11L1108,727l73.36,7.88L1243,759s57.64,17.11,62.32,21.56S1383,770,1398.5,777s279.35,53.67,279.35,53.67L1784,773l96-32s72.21.89,87.6.44,98.17,0,98.17,0,45.23-3.77,59.23,14.39S2231,788,2249,795,2452.11,830.67,2452.11,830.67Z"/><path class="cls-14" d="M2208.53,953.09c-129.78,54.21-524.12,219-530.68,222.13C1670,1179,1379,1165,1368,1165s-448,64-459,60-381-75-395-75-316-71-316-71L9,936V833c43.26-11.24,73.33-18.7,73.33-18.7,4.67,1.67,281.12,8.89,281.12,8.89l18.48,7.11L438.47,841l53.59-1.78L511,841l41,30,52.36,9.11L661,903.22l27,8.89L713,935l48.44-9.35s-.42-11.35,9.07,0,17.6,27.44,17.6,27.44l16,13.46,53.33,25,21.34,28.4S888,1012,895,1012s42.44-12,42.44-12L988,953.09l35.5,32,31.26-18.52h67.55L1156,937l77.38-31.41L1266,889l25.11,28.14s16.22-9.84,12.56,8.51.54,40.9.54,40.9h51S1380,966,1396,978s26.65,22,26.65,22h19.68l85.34,19.94s15.71-25.87,26.52-28.4,36-25,36-25l42.4-13.46s47-5.42,50.74-10.76,35.25-25.19,35.25-25.19L1769,939l17.19-3.78,51.66-9.57H1885s41.67-2.35,53.33,0,104.91,27.44,104.91,27.44Z"/><path class="cls-15" d="M1242.11,1156s-107,25-160,25-327,57-327,57l-444,68S-52.08,1379.18-191,1404V600.05l5-1.13L-101.89,580s38-2,60,0,57.45,36,57.45,36,24.66,41.67,39.11,54.83S115.11,711,133.11,722s114,36,128,50,61,35,96,64S475,839.33,495.56,864.67,616.11,925,616.11,925s107,54,121,61,142,57,153,64,257,42,267,49c1.16.81,3.19,2.2,5.87,4,12.81,8.69,40.54,27.23,59.53,39.9Z"/><path class="cls-16" d="M1222.51,1142.91,1028,1129l-142,5-198-49-127-37s-110-20-114.39-20.33-82.74-48-82.74-48l-22.52-26.58-49.06-17.42L290.55,910,268,892l-76.23-20.33L113,910l21.33-46L124,842l-9.67-29L34,864l55.94-72.33S32,772,29,768,9,730,9,730l-67-30-9-43-39-36-80-22.08L-101.89,580s38-2,60,0,57.45,36,57.45,36,24.66,41.67,39.11,54.83S115.11,711,133.11,722s114,36,128,50,61,35,96,64S475,839.33,495.56,864.67,616.11,925,616.11,925s107,54,121,61,142,57,153,64,257,42,267,49c1.16.81,3.19,2.2,5.87,4C1175.79,1111.7,1203.52,1130.24,1222.51,1142.91Z"/><path class="cls-17" d="M1242.11,1156s-107,25-160,25-327,57-327,57l-444,68S-52.08,1379.18-191,1404V1018.57c16.28-3.4,31.12-8.88,39-10.57,14-3,77.72-8,77.72-8l19.72,19.75L4,1049s14.07,21.33,38,26.67,94-1.67,94-1.67,29.56,16,38.78,24,112.61,36.33,112.61,36.33l76.06,35.54,67.95-4.55,41.18-12.59S503,1144,514,1150s57.22,2.73,57.22,2.73L644.66,1098l67-1.51,35.89-14.87,40.55-20.14s20.89-9.52,37.89,0S1119.67,1097,1138.33,1098c2.9.16,11.76,2,24.65,5C1183.47,1116.9,1242.11,1156,1242.11,1156Z"/><path class="cls-18" d="M3348.33,757.27v603.49l-2-.34c-6.58-1.13-13.6-2.34-20.94-3.63-70.95-12.48-172.67-32.12-208.39-47.79-57-25-316-57-316-57s-81.28-5.72-146.47-11.94c-36.82-3.5-68.51-7.17-77.53-10.06-25-8-196-42-221.63-59.82S2214,1191,2196,1191c-17.62,0-153.11,47.91-191.1,53.38-.82.11-1.59.21-2.32.29-19.49,2.07-88.29,31.41-151.34,55.75-48.29,18.64-93.2,34.35-110,32.64-24.84-2.52-64.71,23.18-90.18,42-14.29,10.56-24,19-24,19l-23.85,3.67-51.84,8-270.75,41.68s-94.88-6.51-153.51-16.7c-13.74-2.39-25.48-5-33.55-7.73-.88-.3-1.71-.6-2.5-.9-29.74-11.44-188-38-275.65-57.94-27.3-6.21-47.75-11.79-55.35-16.06-32-18-266-11-277.44-14.94-6.67-2.3-71.79-1.92-125-1.2-38.14.51-70.16,1.2-70.16,1.2l7.81-11.3L351,1241s82-14,100-18c5.94-1.32,21-3.3,38.61-5.35C525.24,1213.49,571,1209,571,1209l128.4-42.86S778,1120,788,1106c3.25-4.55,22.06-15.88,46.79-29.94,51.28-29.14,128-70,144.18-86.45,24-24.4,87.11,14.33,87.11,14.33S1183,964,1194,964s64,42,64,42l216.56,43.11H1560V1006l119.83-31.56L1887,957h92s44-61,38.6-76,98.17-59.44,98.17-59.44L2164.33,797S2214,758,2225,740s59.54-14.44,59.54-14.44S2417,704,2434.56,701c15.77-2.7,77.85-55.46,108.34-86.45,3.43-3.49,6.47-6.71,9-9.55,24.89-28,117.11,0,131.11,0s210,21,210,21h109l143.67,64h80.48s31.25,17.32,68.88,38C3312.25,737.51,3330.81,747.7,3348.33,757.27Z"/><path class="cls-19" d="M3295,728c-13.92,3.26-25.15,6.42-31,9.15-25.93,12.18-96.4-11.08-96.4-11.08S2976,726,2957,726.1a101.39,101.39,0,0,1-35.47-6.83s1.47-14.27,0-22.93-140.79,45.74-140.79,45.74L2741,744.75s-45,14.25-47.86,13.07-85.56,45.87-85.56,45.87l-51.47,66.14-104-39.16L2408.36,841l-64,39.1h-15.44L2281.31,861,2205,876.2l5.36,20.59S2160,956,2151.87,966.55,2050,996,2020.41,999s-161,39-161,39l-106.75,27s-35.65,40-34.1,44.64-52.38,24-52.38,24-23.17,27.39-25.41,31.71-68.65-9.3-68.65-9.3-63.11-35-72.11-41-65-23-77.35-32.34-101.6,0-101.6,0L1291.11,1098l-57.73,9.24L1163,1103l-54.21-9.33s-31.77-4.68-41.54-12.06S988,1093.68,988,1093.68l-36.86,13.21H906.33l-23.06-35.31H866.33l-31.54,4.48c51.28-29.14,128-70,144.18-86.45,24-24.4,87.11,14.33,87.11,14.33S1183,964,1194,964s64,42,64,42l216.56,43.11H1560V1006l119.83-31.56L1887,957h92s44-61,38.6-76,98.17-59.44,98.17-59.44L2164.33,797S2214,758,2225,740s59.54-14.44,59.54-14.44S2417,704,2434.56,701c15.77-2.7,77.85-55.46,108.34-86.45,3.43-3.49,6.47-6.71,9-9.55,24.89-28,117.11,0,131.11,0s210,21,210,21h109l143.67,64h80.48S3257.4,707.32,3295,728Z"/><path class="cls-20" d="M3348.33,964.27v339.78l-2,4.59-20.94,48.15-7.06,16.22-730,50.68S1726,1439.39,1725,1436.2c-.42-1.35-33.41-11.75-71.45-23.34-16.6-5-34.16-10.34-50.4-15.19-34.8-10.4-63.48-18.83-63.48-18.83l32.79-59.77,1.2-2.18,67.1-50.83s71.34-44.06,77.79-46.06,91.38-5.28,91.38-5.28C1826,1209,1977,1115,1977,1115s76.88-49,91.94-50,93.58-21,116.82-27,78.52-26.18,78.52-26.18l79.54,8.12s14.31-13.27,25.24-13.61,83.05,0,83.05,0l37.55-53.24,107.74-8.87L2663.31,910l40.76,37.65L2787,957.75l81.06-1.48s42.65-4.77,50.31-6,101.67-.81,110.67-6,22.67-6.35,22.67-6.35l73.33-8.38h54.67l46.66,8.38s27,1.88,56.87,7.16c17.13,3,35.23,7.17,49.8,12.72,4.72,1.8,9.17,3.68,13.33,5.59Z"/><path class="cls-20" d="M1651,1375.05c-14.29,10.56-24,19-24,19l-346.44,53.33S1130,1437,1091,1422s-299-56-331-74-266-11-277.44-14.94-195.17,0-195.17,0L351,1241s82-14,100-18c5.94-1.32,21-3.3,38.61-5.35,29.81,12.11,53.39,21.75,53.39,21.75s139-24,147-24.4,138,29.33,138,29.33L918,1284s78.33-15,99.67-12,169.33-8,169.33-8,78.67,45.87,97.33,49.93,114.67,10,130.67,8,66.33,3.77,170.67,34.39C1604.28,1361.84,1626.72,1368.23,1651,1375.05Z"/><polygon class="cls-21" points="146.03 1319 160.14 1232 171.78 1319 146.03 1319"/><polygon class="cls-21" points="285.03 1303 299.14 1216 310.79 1303 285.03 1303"/><polygon class="cls-21" points="714.03 1319 728.14 1232 739.78 1319 714.03 1319"/><polygon class="cls-21" points="744.03 1335 758.14 1248 769.78 1335 744.03 1335"/><polygon class="cls-21" points="750.03 1319 764.14 1232 775.78 1319 750.03 1319"/><polygon class="cls-21" points="969.03 1332 983.14 1245 994.78 1332 969.03 1332"/><polygon class="cls-21" points="1324.03 1359 1338.14 1272 1349.79 1359 1324.03 1359"/><polygon class="cls-21" points="1456.03 1352 1470.14 1265 1481.79 1352 1456.03 1352"/><polygon class="cls-21" points="1344.03 1352 1358.14 1265 1369.79 1352 1344.03 1352"/><polygon class="cls-21" points="1482.03 1359 1496.14 1272 1507.79 1359 1482.03 1359"/><polygon class="cls-21" points="1658.03 1348 1672.14 1261 1683.79 1348 1658.03 1348"/><polygon class="cls-21" points="1540.03 1379 1554.14 1292 1565.79 1379 1540.03 1379"/><polygon class="cls-21" points="1696.03 1348 1710.14 1261 1721.79 1348 1696.03 1348"/><polygon class="cls-21" points="1831.03 1260 1845.14 1173 1856.79 1260 1831.03 1260"/><polygon class="cls-21" points="1891.03 1238 1905.14 1151 1916.79 1238 1891.03 1238"/><polygon class="cls-21" points="1722.03 1327 1736.14 1240 1747.79 1327 1722.03 1327"/><polygon class="cls-21" points="897.03 1332 911.14 1245 922.78 1332 897.03 1332"/><polygon class="cls-21" points="763.03 1312 777.14 1225 788.78 1312 763.03 1312"/><polygon class="cls-21" points="791.03 1326 805.14 1239 816.78 1326 791.03 1326"/><polygon class="cls-21" points="731.03 1332 745.14 1245 756.78 1332 731.03 1332"/><polygon class="cls-21" points="460.03 1323 474.14 1236 485.79 1323 460.03 1323"/><polygon class="cls-21" points="479.03 1308 493.14 1221 504.79 1308 479.03 1308"/><polygon class="cls-21" points="302.03 1316 316.14 1229 327.79 1316 302.03 1316"/><polygon class="cls-21" points="319.03 1308 333.14 1221 344.79 1308 319.03 1308"/><polygon class="cls-21" points="-14.96 1330 7.9 1189 26.78 1330 -14.96 1330"/><polygon class="cls-21" points="15.04 1322 37.9 1181 56.78 1322 15.04 1322"/><polygon class="cls-21" points="40.04 1343 62.9 1202 81.78 1343 40.04 1343"/><polygon class="cls-21" points="69.04 1362 91.9 1221 110.78 1362 69.04 1362"/><polygon class="cls-21" points="193.04 1315 215.9 1174 234.78 1315 193.04 1315"/><polygon class="cls-21" points="223.04 1353 245.9 1212 264.78 1353 223.04 1353"/><polygon class="cls-21" points="430.04 1330 452.9 1189 471.78 1330 430.04 1330"/><polygon class="cls-21" points="249.04 1296 271.9 1155 290.78 1296 249.04 1296"/><polygon class="cls-21" points="494.04 1326 516.9 1185 535.78 1326 494.04 1326"/><polygon class="cls-21" points="1001.04 1370 1023.9 1229 1042.78 1370 1001.04 1370"/><polygon class="cls-21" points="1068.04 1383 1090.9 1242 1109.78 1383 1068.04 1383"/><polygon class="cls-21" points="1295.04 1366 1317.9 1225 1336.78 1366 1295.04 1366"/><polygon class="cls-21" points="1608.04 1386 1630.9 1245 1649.78 1386 1608.04 1386"/><polygon class="cls-21" points="1101.04 1379 1123.9 1238 1142.78 1379 1101.04 1379"/><polygon class="cls-21" points="509.04 1387 531.9 1246 550.78 1387 509.04 1387"/><polygon class="cls-21" points="682.04 1359 704.9 1218 723.78 1359 682.04 1359"/><polygon class="cls-21" points="556.04 1335 578.9 1194 597.78 1335 556.04 1335"/><polygon class="cls-21" points="572.04 1346 594.9 1205 613.78 1346 572.04 1346"/><polygon class="cls-21" points="94.27 1316 127.83 1109 155.55 1316 94.27 1316"/><polygon class="cls-21" points="322.27 1338 355.83 1131 383.55 1338 322.27 1338"/><polygon class="cls-21" points="351.27 1392 384.83 1185 412.55 1392 351.27 1392"/><polygon class="cls-21" points="389.27 1351 422.83 1144 450.55 1351 389.27 1351"/><polygon class="cls-21" points="615.27 1368 648.83 1161 676.55 1368 615.27 1368"/><polygon class="cls-21" points="812.27 1386 845.83 1179 873.55 1386 812.27 1386"/><polygon class="cls-21" points="1381.27 1445 1414.83 1238 1442.55 1445 1381.27 1445"/><polygon class="cls-21" points="1567.27 1412 1600.83 1205 1628.55 1412 1567.27 1412"/><polygon class="cls-21" points="1735.27 1395 1768.83 1188 1796.55 1395 1735.27 1395"/><polygon class="cls-21" points="1761.27 1364 1794.83 1157 1822.55 1364 1761.27 1364"/><polygon class="cls-21" points="923.27 1407 956.83 1200 984.55 1407 923.27 1407"/><polygon class="cls-21" points="661.11 1323 681.7 1196 698.71 1323 661.11 1323"/><polygon class="cls-21" points="152.27 1352 185.83 1145 213.55 1352 152.27 1352"/><path class="cls-20" d="M604.36,1308.5,421,1252l-99.12-15.93-85.6,23.6S169,1262,165,1264s-81-19-81-19l-42,19-70-3-46.28.79L-118,1264l-98.33-38.82-10.67-4.62v283.15c27.84,1.61,49.33,2.29,49.33,2.29s133.67,0,186.3,5.94S238,1541,265.3,1537.07s186.5-23.29,186.5-23.29L688,1355Z"/><polygon class="cls-22" points="2205.03 1569.92 -229 1945.06 -229 1298.27 108.78 1299 368.78 1282 622.78 1307 722.67 1298 950.78 1310 1028.76 1324.67 1041.11 1327 1071.16 1332.65 1080.97 1334.5 1136.78 1345 1732.78 1336 1911.23 1393.31 2140.47 1486.57 2205.03 1569.92"/><path class="cls-23" d="M1041.11,1327c-239.67-6.41-622.39-16.5-655.61-16.5-20.88,0-125.7,4.12-247.08,8.88-150.18,5.89-318.95,12.53-367.42,12.83v-2c48.37-.31,217.15-6.93,367.34-12.83,121.4-4.76,226.24-8.88,247.16-8.88,32.67,0,403,9.75,643.26,16.17Z"/><path class="cls-23" d="M681.18,1360.14c-97.82,1.46-201.68,3-303.7,4.51,477.28-4.79,1112.82-11.05,1123-11.15l.1,2-1324.5,115-.18-2,1298.56-112.75c-190.26,1.87-1360,13.41-1580.18,15.84l-17.2.23c-10,.14-14.75.21-17,.18l-1.4,0a.63.63,0,0,0,.22,0c-.85,0-.92-.09-1-.19l-.51-.45.23-.64a1,1,0,0,1,1-.67c1.31,0,13.75-.19,35.44-.43,109-1.49,452.05-6.44,786.3-11.46,371.31-5.58,626.59-9.62,747-11.83-158.93.38-595.48,2.49-1637.09,8.75l-19.26.12v-2.53l12.55-.19,171.58-2.66,520.65-8,595.38-9.15,9.81,1.85c-272.88,4.19-845.5,13-1154.37,17.76,207.34-1.24,541.16-3.21,846.69-4.88,218.2-1.19,390.39-2.05,511.77-2.56,70.28-.29,124.54-.48,161.26-.54,19.55,0,34.53,0,44.51,0s13.8,0,15.43.25h0a2.14,2.14,0,0,1,1,.28.67.67,0,0,1,.24.45l.18.77-.71.36C1506.26,1346.74,1504.18,1347.78,681.18,1360.14Z"/><path class="cls-24" d="M3346.33,1271.85v522.22c-185.15,30.33-420.07,64.6-420.07,64.6l-630.68-16-355.24-57s-270-47.71-299-44.71c-14.54,1.5-66-9.9-113.72-21.66-47.49-11.69-91.28-23.73-91.28-23.73l-184-104.31-96-142.49c3.46-.43,15-3,32.38-7.18,45-10.77,129.37-32.15,216.85-54.54l5.55-1.42c24.38-6.24,48.94-12.55,72.89-18.71,115.16-29.63,216.33-55.93,216.33-55.93s56.66-66.33,77.33-67.68,216-77.69,216-77.69,101-54.7,133.33-56.68,231.07-49.71,248.7-47.35,221-59.24,221-59.24,77.18,10.7,155.63,22c24.81,3.57,49.74,7.21,72.4,10.58,50.77,7.55,90.11,13.8,91,15.16,2.22,3.28,252.6,99.57,328.43,128.67l21.52,8.26S3301.31,1224.9,3346.33,1271.85Z"/><path class="cls-25" d="M3346.33,1271.85v522.22c-185.15,30.33-420.07,64.6-420.07,64.6l-630.68-16-355.24-57s-270-47.71-299-44.71c-14.54,1.5-66-9.9-113.72-21.66-47.49-11.69-91.28-23.73-91.28-23.73l-184-104.31-96-142.49c3.46-.43,15-3,32.38-7.18,45-10.77,129.37-32.15,216.85-54.54l5.55-1.42c24.38-6.24,48.94-12.55,72.89-18.71l37.66,13s89.38,4.79,94.19,5.89c3.62.83,43,11.22,62.27,16.32l10.54,2.79,76.67-34.82s5.42-4.92,12.91-11.34c11.15-9.57,26.88-22.49,36.07-27.49,15.35-8.35,72.06-64.63,85.2-65.49,12-.78,66.34-2.89,75.92-3.27l1.45,0s5.63-3.94,13.72-9.42c18.27-12.38,49.07-32.6,55.62-32.81.23,0,.47,0,.74,0,10.92-1,55.82-15.12,55.82-15.12l46.55-26.41h0l38.61-21.9s24.89-19.2,44.74-24.49c3.76-1,14.68-3.7,30-7.41,66-16,214-50.54,227.41-48.92,16.52,2,331.07,19.22,366.79,23.11,23.9,2.6,244,49.15,387.21,79.69l21.52,8.26S3301.31,1224.9,3346.33,1271.85Z"/><path class="cls-26" d="M3361.83,941.15V2244.61H-101.85l-84.76-639.95V1416l92.25-8.51s341.72-17,353.15-14.49S657,1444.19,657,1444.19s350.16,1,379.83,4.17c8.33.88,36.3-3.37,72.21-10,92-16.81,236.07-48.85,236.07-48.85l14.33,2,67.22,9.58,92.05,13.12,48.14,6.86,89.45,12.75,25.41-11,12-5.18,100.12-43.37,147-63.68s22.21-14.91,50.18-32.57c4.91-3.09,10-6.27,15.17-9.47,4.71-2.91,9.5-5.84,14.29-8.74,14.59-8.82,29.24-17.33,42.07-24.12,15.17-8,27.77-13.67,34.67-14.59,8.71-1.15,35.12-12.16,67.7-26.94h0c35.44-16.07,78.18-36.62,113.38-53.8,39.17-19.12,69-34.08,69-34.08s177.56-70.92,200.15-62.82c9.64,3.46,109.31.68,220.42-3.63l10.73-.42c146.58-5.78,308.49-14,308.49-14Z"/><path class="cls-27" d="M3361.83,1403.68v840.93H-101.85l-84.76-639.95V1494.12c.11,5.38,20.78,5,28.44,5.21s40,7.35,40,7.35H-91.5l32.72-14.4,46.39-8.84s-11.89-25.06,0-14.5,128.16-4.25,128.16-4.25l43.4-8.43L246,1477.88l88.11,18.8,75.39,43.73,57.8,22.91,54.53,42.12,79.57,32.29,56.46-2,64,31.85L786,1697.92s128.08,59,129.28,58.8,123.88,58.73,123.88,58.73,349.45.32,353.39-1.82,25.38-42.67,25.38-42.67l53.23-18.66s57.84-6.48,67.59-15.14a14.69,14.69,0,0,1,4.36-2.32c19.26-7.22,84.51-11.48,98.72-14.27,15.66-3.07,39.83-13.81,39.83-13.81s98.21,8.64,113-1.81,108.37-38,108.37-38l65.86-32.27s132.73-17.14,138.66-8.16,226.6,43.78,226.6,43.78l55.16-7.08,207.53-99.91,92.55-22.35L3025,1488.34l187.54-87.62Z"/><path class="cls-28" d="M1681.67,1422.89c-52,76.33-299.52,439.85-302.5,441.93-3.34,2.32-702.67-64.06-702.67-64.06l842.17-386.47,137.59,19.61Z"/><path class="cls-29" d="M1656.26,1433.9l-50.6,49.51-10.94,10.71-25,24.49L1546.84,1541l-210.29,205.77-60,58.76-435-40c4-1.3,39.86-18.28,93.49-44.1,94.15-45.31,243.21-117.82,371.62-180.43l55.47-27,86.05-42,41.43-20.24c40.75-19.9,65.82-32.16,65.82-32.16Z"/><path class="cls-30" d="M1336.55,1746.74l-60,58.76-435-40c4-1.3,39.86-18.28,93.49-44.1C1055.69,1729,1208.67,1738.63,1336.55,1746.74Z"/><path class="cls-31" d="M1569.69,1518.61,1546.84,1541H1306.61l55.47-27Z"/><path class="cls-31" d="M1605.66,1483.41l-10.94,10.71-146.59-22.2,41.43-20.24Z"/><path class="cls-28" d="M1916.08,1724.13H1768.15l2-9.78c12.32-7.08,28.43-15.93,28.43-15.93l.27-17.81-24.17,11.92,17.7-85.17c11-7.16,20.75-12.89,20.75-12.89l4.25-43.53-14.78,7.24,36.1-173.68,8.66,38-6.74-2.9,6.4,12.74,3.49,4,11.13,48.85-15.24-12.33,3.47,14.39,17.39,22.62L1903.06,1667l-21.46-16.28-.13,8.74,25.7,25.57Z"/><polygon class="cls-32" points="1846.12 1802.72 1831.39 1802.72 1837.5 1684.41 1801.69 1650.37 1804.06 1647.87 1837.5 1679.67 1837.5 1603.71 1821.25 1585.93 1823.79 1583.61 1837.5 1598.62 1837.5 1497.26 1840.94 1497.26 1840.94 1563.74 1857.32 1529.51 1860.42 1530.99 1840.94 1571.71 1840.94 1644.05 1867.65 1590.39 1870.72 1591.93 1840.94 1651.77 1840.94 1710.25 1872.31 1674.51 1874.9 1676.78 1840.94 1715.47 1846.12 1802.72"/><path class="cls-33" d="M1698.8,1770.23h126.63l-1.74-8.38c-10.55-6.06-24.33-13.63-24.33-13.63l-.24-15.25,20.69,10.21-15.15-72.91c-9.42-6.13-17.76-11-17.76-11l-3.63-37.26,12.64,6.2L1765,1479.5l-7.41,32.56,5.77-2.49-5.48,10.91-3,3.42-9.52,41.82,13-10.55-3,12.31-14.89,19.36-30.62,134.45,18.37-13.94.12,7.49-22,21.88Z"/><polygon class="cls-32" points="1758.69 1837.5 1771.29 1837.5 1766.06 1736.23 1796.72 1707.08 1794.69 1704.95 1766.06 1732.16 1766.06 1667.15 1779.97 1651.93 1777.8 1649.94 1766.06 1662.79 1766.06 1576.03 1763.12 1576.03 1763.12 1632.93 1749.1 1603.63 1746.44 1604.9 1763.12 1639.75 1763.12 1701.68 1740.26 1655.75 1737.62 1657.06 1763.12 1708.28 1763.12 1758.35 1736.26 1727.75 1734.05 1729.69 1763.12 1762.81 1758.69 1837.5"/><path class="cls-34" d="M488.08,1580.13H340.15l2-9.78c12.32-7.08,28.43-15.93,28.43-15.93l.27-17.81-24.17,11.92,17.7-85.17c11-7.16,20.75-12.89,20.75-12.89l4.25-43.53-14.78,7.24,36.1-173.68,8.66,38-6.74-2.9,6.4,12.74,3.49,4,11.13,48.85-15.24-12.33,3.47,14.39,17.39,22.62L475.06,1523l-21.46-16.28-.13,8.74,25.7,25.57Z"/><polygon class="cls-32" points="418.12 1658.72 403.39 1658.72 409.5 1540.41 373.69 1506.37 376.06 1503.87 409.5 1535.67 409.5 1459.71 393.25 1441.93 395.79 1439.61 409.5 1454.62 409.5 1353.26 412.94 1353.26 412.94 1419.74 429.32 1385.51 432.42 1386.99 412.94 1427.71 412.94 1500.05 439.65 1446.39 442.73 1447.93 412.94 1507.77 412.94 1566.25 444.31 1530.51 446.9 1532.78 412.94 1571.47 418.12 1658.72"/><path class="cls-35" d="M687.73,1705.13H592.5l1.31-6.3c7.93-4.55,18.3-10.25,18.3-10.25l.17-11.46-15.55,7.67L608.12,1630c7.09-4.61,13.36-8.3,13.36-8.3l2.73-28-9.51,4.67,23.24-111.81,5.57,24.48-4.34-1.87,4.12,8.2,2.25,2.58,7.16,31.45-9.81-7.94,2.24,9.26,11.19,14.56,23,101.11-13.82-10.48-.08,5.63L682,1679.93Z"/><polygon class="cls-32" points="642.69 1755.72 633.21 1755.72 637.15 1679.56 614.09 1657.64 615.62 1656.04 637.15 1676.51 637.15 1627.62 626.69 1616.17 628.32 1614.68 637.15 1624.34 637.15 1559.09 639.36 1559.09 639.36 1601.88 649.9 1579.85 651.9 1580.8 639.36 1607.01 639.36 1653.58 656.55 1619.04 658.53 1620.03 639.36 1658.55 639.36 1696.2 659.55 1673.19 661.22 1674.65 639.36 1699.55 642.69 1755.72"/><path class="cls-35" d="M270.8,1585.23H397.43l-1.74-8.38c-10.55-6.06-24.33-13.63-24.33-13.63l-.24-15.25,20.69,10.21-15.15-72.91c-9.42-6.13-17.76-11-17.76-11L355.27,1437l12.64,6.2L337,1294.5l-7.41,32.56,5.77-2.49-5.48,10.91-3,3.42-9.52,41.82,13-10.55-3,12.31-14.89,19.36-30.62,134.45,18.37-13.94.12,7.49-22,21.88Z"/><polygon class="cls-32" points="330.69 1652.5 343.29 1652.5 338.06 1551.23 368.72 1522.08 366.69 1519.95 338.06 1547.16 338.06 1482.15 351.97 1466.93 349.8 1464.94 338.06 1477.79 338.06 1391.03 335.12 1391.03 335.12 1447.93 321.1 1418.63 318.44 1419.9 335.12 1454.75 335.12 1516.68 312.26 1470.75 309.62 1472.06 335.12 1523.28 335.12 1573.35 308.26 1542.75 306.05 1544.69 335.12 1577.81 330.69 1652.5"/><path class="cls-36" d="M3294.06,2256.11H-202.11V1514.73c48.43,6.81,149.33,11,149.33,11l24.89-57.79s88.22-28.34,99.56-27.14S365,1551,365,1551l188.37,106.72,0,0L688,1734l40.77,1.39,395.29,13.48,1.53.05,1.61.06h.47l29.33,1s12.52.09,32.27.32c70.6.79,233.66,3.21,247.73,8.68,18,7,142.22-12.78,167.11-6.39s142.11-5.39,160-12,51.74-46,64.81-49.8,101-7.92,116.06-12.86,96.43-48.55,96.43-48.55,65.7-5.49,94.65,4.06,108.27-12.9,143.61-6.68,172.44.62,172.44.62,79.25-6,90.57-3.2,83.7,36,99,42.41,129,20.42,129,20.42L3197,1774l38.59,191.69,28.48,141.51,24.55,122Z"/><path class="cls-37" d="M3264.07,2107.16c-73.12-9.14-168.61-22.08-177.29-28.22-14.22-10.05-123.78-17.94-146-23s-110.59,34.16-110.59,34.16-187.18,2.86-209.49-11.2-172.42-48.54-172.42-48.54l-129.53-23.57s30.26-19.83,37.32-18.48,48.33-11.75,48.33-11.75,79.61-.6,85.27,0,46.34-8.6,59-8.54,53.83,5.13,53.83,5.13l18.24,35,64.31-13.11,23.88-15.54S2784,1966,2795.27,1968s87.86,0,87.86,0,69.87-23,81-22.92,53.89,2,58.52,2.54S3179.22,1968,3179.22,1968l56.37-2.32Z"/><path class="cls-37" d="M737,1926c-36-4-168-10.33-168-10.33s-38.44-4.34-39.22,0S515,1930,504,1940s-61,38-78,38-126.41,12-133.71,22S269,2079,265,2084s-9,48-31,56-136,1-162,5-132-23-179-24c-37.19-.79-63.11-13.9-95.11-23.14V1656.37C-156,1667.93-120,1677-120,1677l45.72-13.33,74.28,58S102.81,1715,103.91,1717s68.61.89,76.85,7.94S218.33,1735,218.33,1735,415,1828,422,1828s116.33-2.33,121.67-1.67S658,1882,673,1890,773,1930,737,1926Z"/><path class="cls-37" d="M350.78,2073.34C358,2078,548,2007,548,2007l10.78-12,55.11-27H661s72.62,12,84.81,11.45S813,1968.06,813,1968.06s52,12,64,11.45,48-11.45,48-11.45,33.43,15.27,44.22,19.61S1083,2048,1083,2048l121,78,38.11,55.44L253,2173Z"/><path class="cls-37" d="M2049,1788.86c-4-.86-70.67,21.39-70.67,21.39s-19.82,1.23-28.57,3.49-48.57,29.49-48.57,29.49L1872,1853h-20c-4,0-25.67,19.32-25.67,19.32s15.34,24.9,24,25.29S1880,1902,1886,1905s19,14,27,16,82.57-3.33,100.78.33,202.18,46.79,211.7,46.73,59.44-32.73,80-29.39,129.9,15,138.22,14.66,37.9-19,51.11-14.66,53.9,2.66,58.55,0,30.14-12.34,38.4-12S2662,1916,2662,1916s92-16.67,109.49-9.33S2843.05,1920,2868,1924s106-15,106-15,8-3.67,27,1.67,88,6.33,88,6.33,14-9,5-13-55.67-38.77-62.33-37.88-85.34-21-85.34-21l-36-31.38-86.66-16.3s-58.67-8.73-62.67-8.58-406.53-7.8-406.53-7.8L2288.25,1802s-44.31-3-55.78,0S2049,1788.86,2049,1788.86Z"/><path class="cls-38" d="M3222.81,2256.11H1477.56l-40.83-27L688,1734l40.77,1.39,395.29,13.48,1.53.05,1.61.06h.47l29.33,1s12.52.09,32.27.32l15.73,2.29,1909.61,476.5Z"/><path class="cls-39" d="M3022.63,1713h-294l4-19.45c24.49-14.07,56.5-31.66,56.5-31.66l.54-35.39-48,23.69,35.18-169.28c21.87-14.24,41.23-25.63,41.23-25.63l8.43-86.51-29.35,14.4,71.74-345.2,17.21,75.59-13.39-5.78,12.72,25.33,6.94,8,22.11,97.08-30.29-24.49,6.9,28.59,34.56,45,71.09,312.15L2954.1,1567l-.27,17.37,51.07,50.81Z"/><polygon class="cls-40" points="2883.57 1869.22 2854.3 1869.22 2866.45 1634.08 2795.27 1566.41 2799.98 1561.46 2866.45 1624.65 2866.45 1473.69 2834.16 1438.35 2839.2 1433.74 2866.45 1463.56 2866.45 1262.12 2873.29 1262.12 2873.29 1394.25 2905.84 1326.21 2912 1329.16 2873.29 1410.09 2873.29 1553.87 2926.36 1447.22 2932.48 1450.26 2873.29 1569.2 2873.29 1685.44 2935.64 1614.4 2940.77 1618.9 2873.29 1695.8 2883.57 1869.22"/><path class="cls-39" d="M2795.63,1570h-294l4-19.45c24.49-14.07,56.5-31.66,56.5-31.66l.54-35.39-48,23.69,35.18-169.28c21.87-14.24,41.23-25.63,41.23-25.63l8.43-86.51-29.35,14.4L2641.89,895l17.21,75.59-13.39-5.78,12.72,25.33,6.94,8,22.11,97.08-30.29-24.49,6.9,28.59,34.56,45,71.09,312.15L2727.1,1424l-.27,17.37,51.07,50.81Z"/><polygon class="cls-40" points="2656.57 1726.22 2627.3 1726.22 2639.45 1491.08 2568.27 1423.41 2572.98 1418.46 2639.45 1481.65 2639.45 1330.69 2607.16 1295.35 2612.2 1290.74 2639.45 1320.56 2639.45 1119.12 2646.29 1119.12 2646.29 1251.25 2678.84 1183.21 2685 1186.16 2646.29 1267.09 2646.29 1410.87 2699.36 1304.22 2705.48 1307.26 2646.29 1426.2 2646.29 1542.44 2708.64 1471.4 2713.77 1475.9 2646.29 1552.8 2656.57 1726.22"/><path class="cls-41" d="M1837.85,1742.35h227.53l-3.13-15c-19-10.89-43.72-24.51-43.72-24.51l-.42-27.38,37.17,18.33-27.23-131c-16.92-11-31.91-19.83-31.91-19.83l-6.52-67,22.71,11.14L1956.82,1220l-13.32,58.49,10.36-4.47-9.84,19.6-5.37,6.16-17.11,75.13,23.44-19-5.34,22.12-26.75,34.79-55,241.56,33-25,.21,13.44-39.52,39.32Z"/><polygon class="cls-42" points="1945.45 1863.22 1968.11 1863.22 1958.7 1681.26 2013.78 1628.9 2010.14 1625.07 1958.7 1673.97 1958.7 1557.15 1983.7 1529.8 1979.79 1526.24 1958.7 1549.31 1958.7 1393.43 1953.42 1393.43 1953.42 1495.68 1928.23 1443.03 1923.46 1445.31 1953.42 1507.93 1953.42 1619.19 1912.35 1536.66 1907.61 1539.02 1953.42 1631.06 1953.42 1721.01 1905.17 1666.03 1901.19 1669.52 1953.42 1729.02 1945.45 1863.22"/><path class="cls-41" d="M363.45,1768.86H529.78l-2.29-11c-13.85-8-32-17.91-32-17.91l-.3-20,27.16,13.4-19.9-95.76c-12.37-8.06-23.32-14.5-23.32-14.5l-4.77-48.93,16.6,8.14L450.42,1387l-9.74,42.76,7.58-3.27-7.2,14.33-3.92,4.5-12.51,54.92,17.13-13.85-3.9,16.17L418.31,1528l-40.22,176.59,24.13-18.3.15,9.83-28.9,28.74Z"/><polygon class="cls-42" points="442.11 1857.22 458.67 1857.22 451.8 1724.2 492.06 1685.92 489.4 1683.12 451.8 1718.87 451.8 1633.47 470.07 1613.48 467.21 1610.87 451.8 1627.74 451.8 1513.78 447.93 1513.78 447.93 1588.53 429.52 1550.04 426.03 1551.71 447.93 1597.49 447.93 1678.82 417.91 1618.49 414.45 1620.22 447.93 1687.5 447.93 1753.26 412.66 1713.07 409.75 1715.62 447.93 1759.12 442.11 1857.22"/><path class="cls-41" d="M2234.38,1620.35H2006.85l3.13-15c19-10.89,43.72-24.51,43.72-24.51l.42-27.38L2017,1571.75l27.23-131c16.92-11,31.91-19.83,31.91-19.83l6.52-67-22.72,11.14L2115.41,1098l13.32,58.49-10.37-4.47,9.85,19.6,5.37,6.16,17.11,75.13-23.44-19,5.34,22.12,26.74,34.79,55,241.56-33-25-.21,13.44,39.52,39.32Z"/><polygon class="cls-42" points="2126.77 1741.22 2104.12 1741.22 2113.52 1559.26 2058.44 1506.9 2062.09 1503.07 2113.52 1551.97 2113.52 1435.15 2088.53 1407.8 2092.43 1404.24 2113.52 1427.31 2113.52 1271.43 2118.81 1271.43 2118.81 1373.68 2144 1321.03 2148.77 1323.31 2118.81 1385.93 2118.81 1497.19 2159.88 1414.66 2164.62 1417.02 2118.81 1509.06 2118.81 1599.01 2167.06 1544.03 2171.04 1547.52 2118.81 1607.02 2126.77 1741.22"/><path class="cls-41" d="M2900.38,1752.35H2672.85l3.13-15c18.95-10.89,43.72-24.51,43.72-24.51l.42-27.38L2683,1703.75l27.23-131c16.92-11,31.91-19.83,31.91-19.83l6.52-67-22.72,11.14L2781.41,1230l13.32,58.49-10.37-4.47,9.85,19.6,5.37,6.16,17.11,75.13-23.44-19,5.34,22.12,26.74,34.79,55,241.56-33-25-.21,13.44,39.52,39.32Z"/><polygon class="cls-42" points="2792.77 1873.22 2770.12 1873.22 2779.52 1691.26 2724.44 1638.9 2728.09 1635.07 2779.52 1683.97 2779.52 1567.15 2754.53 1539.8 2758.43 1536.24 2779.52 1559.31 2779.52 1403.43 2784.81 1403.43 2784.81 1505.68 2810 1453.03 2814.77 1455.31 2784.81 1517.93 2784.81 1629.19 2825.88 1546.66 2830.62 1549.02 2784.81 1641.06 2784.81 1731.01 2833.06 1676.03 2837.04 1679.52 2784.81 1739.02 2792.77 1873.22"/><polygon class="cls-43" points="2472.89 1253.82 2346.56 1388.4 2343.82 1301.87 2343.72 1298.57 2343.05 1277.39 2341.81 1237.99 2341.29 1221.42 2340.9 1209.31 2339.41 1162.27 2468.71 1121.33 2469.37 1142.44 2469.8 1156.04 2470.07 1164.35 2470.8 1187.57 2472.89 1253.82"/><path class="cls-44" d="M2472.89,1253.82,2346.56,1388.4l-2.74-86.53c30.49-27.7,90.44-81.53,127-114.3Z"/><path class="cls-45" d="M2469.37,1142.44c-32.26,16.71-93.41,48.4-128.47,66.87l-1.49-47,129.3-40.94Z"/><rect class="cls-46" x="2251" y="1859.5" width="632.13" height="15.1"/><polygon class="cls-47" points="2786.96 1431.49 2786.96 1859.5 2293.29 1859.5 2293.29 1431.49 2301.67 1420 2304.48 1416.16 2333.21 1376.78 2335.96 1373.01 2360.69 1339.12 2363.41 1335.38 2383.61 1307.7 2386.31 1303.99 2410.93 1270.27 2413.71 1266.44 2442.86 1226.49 2445.59 1222.74 2471.32 1187.48 2474.08 1183.7 2499.03 1149.49 2501.72 1145.82 2526.27 1112.17 2529.09 1108.3 2548.56 1081.62 2565.93 1107.1 2568.45 1110.81 2594.75 1149.4 2597.4 1153.29 2618.12 1183.7 2620.69 1187.48 2646.48 1225.31 2649.07 1229.13 2671.38 1261.86 2673.92 1265.59 2706.25 1313.04 2708.88 1316.89 2725.2 1340.85 2727.8 1344.66 2747.11 1373.01 2749.69 1376.78 2768.96 1405.07 2771.49 1408.78 2786.96 1431.49"/><polygon class="cls-48" points="2705.93 1555.17 2697.48 1837.14 2696.92 1855.73 2696.8 1859.81 2565.37 1859.81 2560.38 1780.53 2546.2 1555.17 2705.93 1555.17"/><path class="cls-48" d="M2598.81,1364.22c-.47-1.25-1-2.46-1.5-3.58a58.77,58.77,0,0,0-11.76-17,59.11,59.11,0,0,0-23.83-14.62,59,59,0,0,0-77,56.16c0,1.13,0,2.26.09,3.34a58.71,58.71,0,0,0,11.82,32.19,59.34,59.34,0,0,0,19.11,16.4l2.85,1.53h.19c1.28.59,2.57,1.14,3.85,1.63a59,59,0,0,0,76.15-76.09Z"/><polygon class="cls-48" points="2786.96 1431.49 2786.96 1503.81 2552.34 1134.48 2293.29 1490.11 2293.29 1431.49 2301.67 1420 2304.48 1416.16 2333.21 1376.78 2335.96 1373.01 2360.69 1339.12 2363.41 1335.38 2383.61 1307.7 2386.31 1303.99 2410.93 1270.27 2413.71 1266.44 2442.86 1226.49 2445.59 1222.74 2471.32 1187.48 2474.08 1183.7 2499.03 1149.49 2501.72 1145.82 2526.27 1112.17 2529.09 1108.3 2548.56 1081.62 2565.93 1107.1 2568.45 1110.81 2594.75 1149.4 2597.4 1153.29 2618.12 1183.7 2620.69 1187.48 2646.48 1225.31 2649.07 1229.13 2671.38 1261.86 2673.92 1265.59 2706.25 1313.04 2708.88 1316.89 2725.2 1340.85 2727.8 1344.66 2747.11 1373.01 2749.69 1376.78 2768.96 1405.07 2771.49 1408.78 2786.96 1431.49"/><polygon class="cls-49" points="2568.45 1110.81 2526.27 1112.17 2529.09 1108.3 2565.93 1107.1 2568.45 1110.81"/><polygon class="cls-49" points="2597.4 1153.29 2499.03 1149.49 2501.72 1145.82 2594.75 1149.4 2597.4 1153.29"/><polygon class="cls-49" points="2620.69 1187.48 2471.32 1187.48 2474.08 1183.7 2618.12 1183.7 2620.69 1187.48"/><path class="cls-49" d="M2649.07,1229.13l-206.21-2.64,2.73-3.74,200.89,2.56Z"/><polygon class="cls-49" points="2673.92 1265.59 2410.93 1270.27 2413.71 1266.44 2671.38 1261.86 2673.92 1265.59"/><polygon class="cls-49" points="2708.88 1316.89 2383.61 1307.7 2386.31 1303.99 2706.25 1313.04 2708.88 1316.89"/><polygon class="cls-49" points="2727.8 1344.66 2360.69 1339.12 2363.41 1335.38 2725.2 1340.85 2727.8 1344.66"/><polygon class="cls-49" points="2749.69 1376.78 2333.21 1376.78 2335.96 1373.01 2747.11 1373.01 2749.69 1376.78"/><path class="cls-49" d="M2771.49,1408.78c-135.49,3.26-348.22,8.38-469.82,11.22l2.81-3.84c121.35-2.85,330.18-7.86,464.48-11.09Z"/><rect class="cls-49" x="2293.29" y="1451.55" width="493.67" height="3.78"/><polygon class="cls-49" points="2786.96 1481.62 2786.96 1485.39 2293.29 1498.43 2293.29 1494.66 2786.96 1481.62"/><polygon class="cls-49" points="2786.96 1552.87 2786.96 1556.65 2293.29 1548.07 2293.29 1544.29 2786.96 1552.87"/><polygon class="cls-49" points="2786.96 1581.62 2786.96 1585.38 2293.29 1598.26 2293.29 1594.49 2786.96 1581.62"/><path class="cls-49" d="M2787,1514.73v3.78c-133.21-.08-380.05.11-493.67.2v-3.77C2407.37,1514.84,2653.76,1514.64,2787,1514.73Z"/><polygon class="cls-49" points="2786.96 1630.72 2786.96 1634.5 2293.29 1641.27 2293.29 1637.5 2786.96 1630.72"/><polygon class="cls-49" points="2786.96 1679.21 2786.96 1682.99 2293.29 1663.94 2293.29 1660.17 2786.96 1679.21"/><polygon class="cls-49" points="2786.96 1736.8 2786.96 1740.58 2293.29 1758.06 2293.29 1754.29 2786.96 1736.8"/><polygon class="cls-49" points="2293.29 1796.17 2786.96 1774.55 2786.96 1778.33 2293.29 1799.95 2293.29 1796.17"/><rect class="cls-49" x="2293.29" y="1820.23" width="493.67" height="3.78"/><polygon class="cls-49" points="2293.29 1843.12 2786.96 1851.75 2786.96 1855.52 2293.29 1846.89 2293.29 1843.12"/><polygon class="cls-49" points="2786.96 1706.52 2786.96 1710.3 2293.29 1716.08 2293.29 1712.3 2786.96 1706.52"/><polygon class="cls-50" points="2830.18 1467.54 2792.58 1467.54 2548.56 1098.23 2288.43 1467.54 2252.51 1467.54 2548.56 1065 2830.18 1467.54"/><polygon class="cls-51" points="2815.81 1467.54 2792.58 1467.54 2548.56 1098.23 2288.43 1467.54 2266.99 1467.54 2548.56 1081.62 2815.81 1467.54"/><path class="cls-45" d="M2548.62,1435.17a58.61,58.61,0,0,1-21-3.88c-1.29-.48-2.58-1-3.85-1.62h-.2l-2.85-1.53a59.25,59.25,0,0,1-24.93-25.81,58.4,58.4,0,0,1-6-22.78c-.07-1.08-.1-2.21-.1-3.34a59,59,0,0,1,77-56.16,59.11,59.11,0,0,1,35.59,31.58c.52,1.12,1,2.33,1.5,3.58a58.39,58.39,0,0,1,3.86,21A59,59,0,0,1,2548.62,1435.17Z"/><path class="cls-43" d="M2548.62,1430a53.61,53.61,0,0,1-19.21-3.53c-1.52-.58-3-1.24-4.52-2h-.07l-1.71-.92a54.25,54.25,0,0,1-17.45-15,53.57,53.57,0,0,1-10.78-29.39c-.06-1-.09-2-.09-3a54.56,54.56,0,0,1,.94-10.08,53.86,53.86,0,0,1,69.34-41.19,52.35,52.35,0,0,1,5.36,2,53,53,0,0,1,8.25,4.57,53.74,53.74,0,0,1,18.88,22.22c.48,1,.94,2.12,1.37,3.25a53.87,53.87,0,0,1-50.31,73Z"/><path class="cls-52" d="M2594.76,1376.21a46.18,46.18,0,0,1-62.6,43.12,45.48,45.48,0,0,1-5.4-2.48h0a46.36,46.36,0,0,1-19.52-20.2,45.76,45.76,0,0,1-4.68-17.81c-.06-.87-.08-1.75-.08-2.63a46.19,46.19,0,0,1,60.24-44,46.25,46.25,0,0,1,11.65,5.65,46.82,46.82,0,0,1,7,5.79,46.06,46.06,0,0,1,9.21,13.29c.42.9.81,1.83,1.16,2.76A45.86,45.86,0,0,1,2594.76,1376.21Z"/><g class="cls-53"><path class="cls-4" d="M2581.37,1343.7,2511.8,1404a46.42,46.42,0,0,1-4.56-7.37l67.13-58.74A46.82,46.82,0,0,1,2581.37,1343.7Z"/><path class="cls-4" d="M2591.74,1359.75l-59.58,59.58a45.48,45.48,0,0,1-5.4-2.48l63.82-59.86C2591,1357.89,2591.39,1358.82,2591.74,1359.75Z"/><path class="cls-4" d="M2567.31,1334l-64.75,44.83c-.06-.87-.08-1.75-.08-2.63a46.36,46.36,0,0,1,.81-8.64l59.43-35.31A45.22,45.22,0,0,1,2567.31,1334Z"/></g><polygon class="cls-43" points="2713.08 1542.31 2704.07 1842.87 2703.55 1860.26 2573.35 1860.26 2553.34 1542.31 2713.08 1542.31"/><polygon class="cls-52" points="2697.19 1553.02 2695.76 1621.28 2695.67 1625.75 2695.21 1647.73 2694.57 1678.13 2691.09 1844.59 2581.72 1844.59 2577.59 1774.44 2575.35 1736.49 2574.03 1714.01 2573.7 1708.44 2570.02 1646 2569.2 1632.21 2564.54 1553.02 2697.19 1553.02"/><polygon class="cls-54" points="2693.14 1553.02 2570.02 1646 2569.2 1632.21 2677.04 1553.02 2693.14 1553.02"/><polygon class="cls-54" points="2695.21 1647.73 2694.57 1678.13 2577.59 1774.44 2575.35 1736.49 2695.21 1647.73"/><polygon class="cls-54" points="2695.76 1621.28 2695.67 1625.75 2574.03 1714.01 2573.7 1708.44 2695.76 1621.28"/><polygon class="cls-43" points="2562.63 1610.9 2706.25 1607.33 2706.25 1624.37 2562.63 1620.56 2562.63 1610.9"/><polygon class="cls-43" points="2569.75 1701.28 2706.25 1698.81 2704.1 1709.5 2569.75 1709.5 2569.75 1701.28"/><path class="cls-43" d="M2573.35,1767.37H2701l-3.82,81.4h-119Z"/><polygon class="cls-55" points="2704.07 1842.87 2703.55 1860.26 2573.35 1860.26 2553.34 1542.31 2556.16 1542.31 2577.86 1842.87 2704.07 1842.87"/><circle class="cls-56" cx="2701.25" cy="1704.5" r="6.43"/><polygon class="cls-57" points="2481.26 1592.74 2481.26 1862.61 1995.77 1862.61 1995.77 1604.15 1996.15 1603.61 1998.87 1599.81 2020.41 1569.7 2023.08 1565.97 2043.24 1537.78 2045.95 1534 2068.94 1501.85 2071.6 1498.13 2092.07 1469.51 2094.77 1465.73 2113.56 1439.47 2116.29 1435.65 2134.14 1410.69 2136.94 1406.79 2163.37 1369.83 2166.07 1366.06 2185.76 1338.53 2188.5 1334.69 2205.84 1310.45 2208.55 1306.67 2230.7 1275.7 2233.42 1271.9 2247.98 1251.54 2261.72 1271.64 2264.28 1275.39 2285.67 1306.67 2288.25 1310.45 2302.92 1331.9 2305.46 1335.62 2326.31 1366.12 2328.89 1369.89 2347.49 1397.09 2349.99 1400.75 2371.28 1431.88 2373.84 1435.62 2394.43 1465.73 2397.01 1469.51 2421.91 1505.93 2424.52 1509.75 2441.1 1534 2443.68 1537.78 2468.38 1573.9 2470.99 1577.71 2481.26 1592.74"/><path class="cls-58" d="M2287.07,1494.11c-.41-1.07-.84-2.12-1.29-3.07a50.82,50.82,0,0,0-25.52-25.21,53,53,0,0,0-5.05-1.92,50.64,50.64,0,0,0-66.13,48.24c0,1,0,1.94.08,2.87a50.46,50.46,0,0,0,10.15,27.66,51.12,51.12,0,0,0,16.42,14.08l2.45,1.32h.16c1.1.51,2.21,1,3.31,1.39a50.67,50.67,0,0,0,65.42-65.36Z"/><polygon class="cls-59" points="2355.28 1628.4 2347.34 1736.86 2343.56 1788.61 2124.04 1788.61 2115.06 1628.4 2355.28 1628.4"/><path class="cls-58" d="M2481.26,1592.74v80.48L2247.49,1298s-181.39,264.4-251.72,368.28v-62.16l.38-.54,2.72-3.8,21.54-30.11,2.67-3.73,20.16-28.19L2046,1534l23-32.15,2.66-3.72,20.48-28.62,2.69-3.78,18.79-26.26,2.73-3.82,17.85-25,2.8-3.9,26.43-37,2.7-3.77,19.69-27.53,2.74-3.84,17.34-24.24,2.71-3.78,22.15-31,2.72-3.8,14.56-20.36,13.74,20.1,2.56,3.75,21.39,31.28,2.58,3.78,14.67,21.45,2.54,3.71,20.85,30.51,2.58,3.77,18.6,27.2,2.5,3.66,21.29,31.13,2.56,3.74,20.58,30.11,2.59,3.78,24.9,36.42,2.61,3.82L2441.1,1534l2.58,3.78,24.7,36.12,2.61,3.81Z"/><polygon class="cls-60" points="2264.28 1275.39 2230.7 1275.7 2233.42 1271.9 2261.72 1271.64 2264.28 1275.39"/><polygon class="cls-60" points="2288.25 1310.45 2205.84 1310.45 2208.55 1306.67 2285.67 1306.67 2288.25 1310.45"/><polygon class="cls-60" points="2305.46 1335.62 2185.76 1338.53 2188.5 1334.69 2302.92 1331.9 2305.46 1335.62"/><path class="cls-60" d="M2328.89,1369.89c-54.83,0-112.75,0-165.52-.06l2.7-3.77c51.19,0,107.1,0,160.24.06Z"/><polygon class="cls-60" points="2349.99 1400.75 2134.14 1410.69 2136.94 1406.79 2347.49 1397.09 2349.99 1400.75"/><polygon class="cls-60" points="2373.84 1435.62 2113.56 1439.47 2116.29 1435.65 2371.28 1431.88 2373.84 1435.62"/><polygon class="cls-60" points="2397.01 1469.51 2092.07 1469.51 2094.77 1465.73 2394.43 1465.73 2397.01 1469.51"/><path class="cls-60" d="M2424.52,1509.75c-112.45-2.17-260.13-5.61-355.58-7.9l2.66-3.72c112.43,2.7,247.52,5.79,350.31,7.8Z"/><polygon class="cls-60" points="2443.68 1537.78 2043.24 1537.78 2045.95 1534 2441.1 1534 2443.68 1537.78"/><path class="cls-60" d="M2471,1577.71c-118.81-2.07-330.6-5.86-450.58-8l2.67-3.73c119.23,2.14,326.84,5.85,445.3,7.93Z"/><polygon class="cls-60" points="2481.26 1595.65 2481.26 1599.42 1996.15 1603.61 1998.87 1599.81 2481.26 1595.65"/><polygon class="cls-60" points="2481.26 1637.1 2481.26 1640.89 1995.77 1623.98 1995.77 1620.2 2481.26 1637.1"/><polygon class="cls-60" points="2481.26 1661.42 2481.26 1665.2 1995.77 1661.5 1995.77 1657.72 2481.26 1661.42"/><polygon class="cls-60" points="2481.26 1707.46 2481.26 1711.24 1995.77 1728.28 1995.77 1724.5 2481.26 1707.46"/><polygon class="cls-60" points="2481.26 1746.2 2481.26 1749.97 1995.77 1755.46 1995.77 1751.68 2481.26 1746.2"/><polygon class="cls-60" points="2481.26 1772.75 2481.26 1776.54 1995.77 1785.26 1995.77 1781.48 2481.26 1772.75"/><rect class="cls-60" x="1995.77" y="1809.03" width="485.49" height="3.78"/><polygon class="cls-60" points="2481.26 1839.56 2481.26 1843.34 1995.77 1855.12 1995.77 1851.34 2481.26 1839.56"/><polygon class="cls-60" points="2481.26 1688.69 2481.26 1692.48 1995.77 1701.43 1995.77 1697.66 2481.26 1688.69"/><polygon class="cls-50" points="2529.6 1637.47 2492 1637.47 2247.98 1268.16 1987.85 1637.47 1951.93 1637.47 2247.98 1234.93 2529.6 1637.47"/><polygon class="cls-51" points="2515.22 1637.47 2492 1637.47 2247.98 1268.16 1987.85 1637.47 1966.41 1637.47 2247.98 1251.54 2515.22 1637.47"/><polygon class="cls-61" points="2123.36 1613.3 2120.59 1616.32 2129.41 1776.43 2346.83 1776.43 2351.87 1773.51 2123.36 1613.3"/><polygon class="cls-43" points="2363.59 1613.3 2355.65 1721.76 2351.87 1773.51 2132.34 1773.51 2123.36 1613.3 2363.59 1613.3"/><polygon class="cls-45" points="2355.65 1721.76 2351.87 1773.51 2132.34 1773.51 2123.36 1613.3 2128.49 1613.3 2169.94 1724.07 2237.25 1723.23 2250.73 1723.06 2355.65 1721.76"/><polygon class="cls-52" points="2354.47 1623.12 2354 1627.36 2353.62 1630.76 2351.08 1653.69 2350.7 1657.09 2344.33 1714.67 2342.59 1730.3 2338.66 1765.86 2143.76 1765.86 2143.25 1757.45 2142.46 1744.35 2141.82 1733.8 2139.97 1703.03 2139.72 1698.9 2139.55 1696.05 2136.9 1652.03 2136.11 1638.92 2135.03 1620.96 2153.88 1621.14 2167.64 1621.28 2213.86 1621.73 2216.86 1621.77 2221.2 1621.8 2253.51 1622.12 2264.57 1622.23 2278.33 1622.37 2354.47 1623.12"/><g class="cls-53"><polygon class="cls-4" points="2167.64 1621.28 2136.9 1652.03 2136.11 1638.92 2153.88 1621.14 2167.64 1621.28"/><polygon class="cls-4" points="2344.33 1714.67 2342.59 1730.3 2307.04 1765.86 2293.14 1765.86 2344.33 1714.67"/><polygon class="cls-4" points="2278.33 1622.37 2143.25 1757.45 2142.46 1744.35 2264.57 1622.23 2278.33 1622.37"/><polygon class="cls-4" points="2354 1627.36 2353.62 1630.76 2218.52 1765.86 2215.5 1765.86 2354 1627.36"/><polygon class="cls-4" points="2351.08 1653.69 2350.7 1657.09 2241.94 1765.86 2238.91 1765.86 2351.08 1653.69"/><polygon class="cls-4" points="2216.86 1621.77 2139.72 1698.9 2139.55 1696.05 2213.86 1621.73 2216.86 1621.77"/><polygon class="cls-4" points="2253.51 1622.12 2141.82 1733.8 2139.97 1703.03 2221.2 1621.8 2253.51 1622.12"/></g><path class="cls-43" d="M2238.16,1769.63l-1.34-68.32-1.68-85h14s.61,50.21,1.33,93.16c.55,31.74,1.15,59.51,1.62,60.15C2253.22,1771.14,2238.16,1769.63,2238.16,1769.63Z"/><path class="cls-45" d="M2238.16,1769.63l-1.34-68.32,13.67,8.17c.55,31.74,1.15,59.51,1.62,60.15C2253.22,1771.14,2238.16,1769.63,2238.16,1769.63Z"/><rect class="cls-62" x="1923.98" y="1859.5" width="632.13" height="15.1"/><path class="cls-45" d="M2244.26,1552.23a50.34,50.34,0,0,1-18.08-3.33c-1.1-.42-2.21-.89-3.3-1.4h-.17l-2.45-1.31a51,51,0,0,1-16.42-14.09,50.47,50.47,0,0,1-10.15-27.65c-.05-.93-.08-1.9-.08-2.87a50.61,50.61,0,0,1,71.18-46.32,51,51,0,0,1,15.42,10.63,50.36,50.36,0,0,1,10.1,14.57c.45,1,.89,2,1.29,3.07a50.66,50.66,0,0,1-47.34,68.7Z"/><path class="cls-43" d="M2244.26,1547.82a46,46,0,0,1-16.5-3c-1.31-.5-2.61-1.07-3.88-1.69h-.06l-1.47-.79a46.58,46.58,0,0,1-15-12.86,45.24,45.24,0,0,1-4.57-7.39,45.84,45.84,0,0,1-4.7-17.86c-.05-.85-.08-1.74-.08-2.62a46.28,46.28,0,0,1,60.38-44,43.36,43.36,0,0,1,4.61,1.76,44.88,44.88,0,0,1,7.09,3.92,46.36,46.36,0,0,1,16.22,19.09c.41.88.8,1.82,1.17,2.8a45.78,45.78,0,0,1,3,16.48A46.3,46.3,0,0,1,2244.26,1547.82Z"/><path class="cls-52" d="M2283.9,1501.58a39.66,39.66,0,0,1-53.78,37,38.92,38.92,0,0,1-4.64-2.13h0a39.87,39.87,0,0,1-16.77-17.35,39.37,39.37,0,0,1-4-15.3c-.05-.75-.07-1.51-.07-2.26a39.69,39.69,0,0,1,51.76-37.76,39,39,0,0,1,3.94,1.5,38.4,38.4,0,0,1,6.06,3.36,39.62,39.62,0,0,1,13.93,16.39c.36.77.69,1.57,1,2.37A39.45,39.45,0,0,1,2283.9,1501.58Z"/><g class="cls-53"><path class="cls-4" d="M2272.4,1473.65l-59.77,51.82a40,40,0,0,1-3.92-6.33l57.67-50.46A39.27,39.27,0,0,1,2272.4,1473.65Z"/><path class="cls-4" d="M2281.31,1487.44l-51.19,51.18a38.92,38.92,0,0,1-4.64-2.13l54.83-51.42C2280.67,1485.84,2281,1486.64,2281.31,1487.44Z"/><path class="cls-4" d="M2260.32,1465.32l-55.63,38.52c-.05-.75-.07-1.51-.07-2.26a39.39,39.39,0,0,1,.7-7.42l51.06-30.34A39,39,0,0,1,2260.32,1465.32Z"/></g><polygon class="cls-50" points="2481.34 1096.49 2481.34 1132.74 2318.68 1190.5 2320.08 1165.38 2320.58 1156.35 2481.34 1096.49"/><path class="cls-51" d="M2481.34,1115v17.77l-162.66,57.76,1.4-25.12C2367.68,1150.45,2440.88,1127.6,2481.34,1115Z"/><polygon class="cls-63" points="2389.96 1194.14 2389.96 1210.04 2341.81 1237.99 2341.29 1221.42 2389.96 1194.14"/><polygon class="cls-63" points="2365.04 1190.5 2365.04 1201.36 2410.93 1182.23 2408.36 1170.14 2365.04 1190.5"/><polygon class="cls-63" points="2470.07 1164.35 2426.46 1183.7 2426.46 1170.14 2469.8 1156.04 2470.07 1164.35"/><polygon class="cls-63" points="2383.61 1230.56 2383.61 1240.63 2428.48 1216.8 2426.46 1206.4 2380.9 1223.6 2383.61 1230.56"/><polygon class="cls-63" points="2369.06 1261.86 2369.06 1279.03 2343.72 1298.57 2343.05 1277.39 2369.06 1261.86"/><polygon class="cls-41" points="282.09 1901.11 -74.28 1901.11 -64.7 1856.12 7.75 1811.07 7.75 1771.07 -54.93 1810.31 -41.59 1747.68 12.04 1714.17 12.04 1662.1 -28.89 1688.08 1.31 1546.3 38.84 1528.78 43.13 1514.83 4.54 1531.14 10.52 1503.08 52.78 1482.13 52.78 1458.47 15.48 1479.79 50.99 1313.1 75.3 1295.23 80.66 1276.97 55.17 1293.52 70.05 1223.62 80.66 1210.76 87.09 1187.7 76.2 1194.75 91.92 1121 148.33 1352.43 126.76 1345.11 126.76 1379.63 158.67 1394.84 209.47 1603.22 160.01 1585.78 166.44 1612.81 218.3 1639.46 262.81 1822 194.31 1801.62 199.68 1849.78 276.06 1876.38 282.09 1901.11"/><polygon class="cls-64" points="24.95 1641.16 18.84 1647.55 86.82 1712.62 85.76 1870.29 33.38 1833.23 28.27 1840.45 85.69 1881.07 84.67 2033 110.5 2033 106.78 1820.88 191.77 1749.19 186.07 1742.43 106.58 1809.47 102.48 1575.55 156.77 1517.72 150.32 1511.66 102.26 1562.86 100.27 1449.19 130.1 1421.42 124.07 1414.95 100.06 1437.3 98.22 1331.84 89.38 1332.14 89.03 1384.23 60.59 1352.02 53.96 1357.88 88.94 1397.49 87.42 1623.45 28.95 1567.67 22.84 1574.07 87.34 1635.59 86.9 1700.45 24.95 1641.16"/><polygon class="cls-65" points="89.94 1954.63 363.87 1954.63 356.5 1920.04 300.82 1885.41 300.82 1854.67 348.99 1884.83 338.74 1836.69 297.52 1810.94 297.52 1770.91 328.98 1790.88 305.76 1681.9 276.92 1668.43 273.62 1657.72 303.28 1670.25 298.69 1648.68 266.2 1632.58 266.2 1614.4 294.87 1630.78 267.57 1502.66 248.9 1488.92 244.77 1474.89 264.37 1487.61 252.93 1433.88 244.77 1423.99 239.83 1406.27 248.2 1411.69 236.12 1355 192.76 1532.88 209.34 1527.26 209.34 1553.8 184.81 1565.48 145.76 1725.65 183.78 1712.25 178.84 1733.03 138.97 1753.51 104.77 1893.82 157.41 1878.15 153.29 1915.17 94.58 1935.62 89.94 1954.63"/><polygon class="cls-66" points="287.59 1754.82 292.29 1759.73 240.04 1809.74 240.85 1930.93 281.11 1902.45 285.04 1908 240.91 1939.22 241.69 2056 221.84 2056 224.69 1892.95 159.37 1837.85 163.75 1832.65 224.85 1884.19 228 1704.39 186.27 1659.93 191.23 1655.28 228.17 1694.63 229.7 1607.26 206.77 1585.91 211.41 1580.94 229.86 1598.12 231.28 1517.06 238.07 1517.29 238.34 1557.33 260.2 1532.57 265.3 1537.07 238.41 1567.53 239.58 1741.2 284.52 1698.33 289.22 1703.25 239.64 1750.54 239.97 1800.39 287.59 1754.82"/><path class="cls-67" d="M2903.78,2256.11H1755.14l-53.06-27L1396,2073.34l-184.39-93.83-166.26-84.6h0L951.16,1847h0l-141.26-71.87-39.38-20-38.74-19.71L731,1735s350.13,12.2,396.06,13.87l1.53.05,1.61.06h.47c3.39.29,27.19,6.64,67.14,17.78,42.89,12,104.4,29.44,179.25,50.87,24.54,7,50.51,14.47,77.74,22.28h0l33.48,9.63c149.83,43.07,332.79,95.93,521,150.26l31.81,9.18c277.07,80,562.1,162.1,766.91,220.11C2842.34,2238.83,2874.39,2247.87,2903.78,2256.11Z"/><path class="cls-68" d="M1377.06,1817.65c-153.61-12.18-493.45-37.11-567.17-42.51l-39.38-20,427.3,11.68C1240.7,1778.74,1302.21,1796.22,1377.06,1817.65Z"/><path class="cls-69" d="M1488.29,1849.56c-77.41,7.69-335.09,33.4-443,45.35h0L951.16,1847l503.64-7.08h0Z"/><path class="cls-70" d="M2041.12,2009,1396,2073.34l-184.39-93.83,797.75,20.31Z"/><path class="cls-71" d="M3285.89-208c-508.53,194.73-1023,374.86-1556.63,479.57C1087.92,397.4,411,409.45-209.22,207.32V293.4C231,399.17,677,411.19,1132.3,409c381.79-1.82,766.15-11.45,1139.8-89.88C2624,245.26,2958.65,112.13,3285.89-39Z"/><path class="cls-71" d="M3285.89,241c-330.75,35.3-661.62,94.05-991.08,137.38a10706.14,10706.14,0,0,1-2504,33.55v91.56c482,7.84,955.77,99.19,1437.92,94.83,691-6.24,1370.87-245.75,2057.19-240.69Z"/><path class="cls-71" d="M1996.79-335.89C1769.24-142.35,1506,7,1215.82,71.22,750.47,174.28,266,49.72-209.22,18.61v74.8c304.51,11.51,612.52,60.93,917,83.94A5233.88,5233.88,0,0,0,2485,5.5c267.75-73.59,539.83-176.39,758.82-341.39Z"/></g></svg>